<svg xmlns="http://www.w3.org/2000/svg" viewBox="0 0 120 120" fill="none">
  <!-- Background -->
  <circle cx="60" cy="60" r="56" fill="#1a1a2e"/>
  
  <!-- Fire/flame shape -->
  <path d="M60 95 C40 95, 30 75, 35 55 C38 45, 45 50, 48 40 C50 32, 55 35, 60 25 C65 35, 70 32, 72 40 C75 50, 82 45, 85 55 C90 75, 80 95, 60 95Z" 
        fill="url(#fireGrad)"/>
  
  <!-- Inner flame -->
  <path d="M60 90 C50 90, 45 78, 48 65 C50 58, 55 62, 58 55 C59 50, 60 52, 60 45 C60 52, 61 50, 62 55 C65 62, 70 58, 72 65 C75 78, 70 90, 60 90Z" 
        fill="url(#innerFire)"/>
  
  <!-- Quote mark in flame -->
  <text x="48" y="78" font-family="Georgia, serif" font-size="28" fill="white" font-weight="bold" opacity="0.9">"</text>
  
  <defs>
    <linearGradient id="fireGrad" x1="50%" y1="100%" x2="50%" y2="0%">
      <stop offset="0%" style="stop-color:#dc2626"/>
      <stop offset="50%" style="stop-color:#f97316"/>
      <stop offset="100%" style="stop-color:#fbbf24"/>
    </linearGradient>
    <linearGradient id="innerFire" x1="50%" y1="100%" x2="50%" y2="0%">
      <stop offset="0%" style="stop-color:#f97316"/>
      <stop offset="100%" style="stop-color:#fef08a"/>
    </linearGradient>
  </defs>
</svg>

