<svg xmlns="http://www.w3.org/2000/svg" viewBox="0 0 120 120" fill="none">
  <!-- Background -->
  <circle cx="60" cy="60" r="56" fill="url(#heartGrad)"/>
  
  <!-- Speech Bubble -->
  <path d="M30 45 C30 35, 40 28, 60 28 C80 28, 90 35, 90 50 C90 65, 80 72, 60 72 L50 72 L45 82 L48 72 C35 70, 30 60, 30 45Z" fill="white"/>
  
  <!-- Heart inside bubble -->
  <path d="M60 42 C55 37, 45 37, 45 47 C45 57, 60 65, 60 65 C60 65, 75 57, 75 47 C75 37, 65 37, 60 42Z" fill="url(#heartGrad)"/>
  
  <defs>
    <linearGradient id="heartGrad" x1="0%" y1="0%" x2="100%" y2="100%">
      <stop offset="0%" style="stop-color:#ec4899"/>
      <stop offset="100%" style="stop-color:#f43f5e"/>
    </linearGradient>
  </defs>
</svg>

